Coordinates
version=1
nRows=16
nColumns=36
inDegrees=yes

Units are S.I. units (second, meters, Newtons, ...)
If the header above contains a line with 'inDegrees', this indicates whether rotational values are in degrees (yes) or radians (no).

endheader
time	pelvis_tilt	pelvis_list	pelvis_rotation	pelvis_tx	pelvis_ty	pelvis_tz	hip_flexion_r	hip_adduction_r	hip_rotation_r	knee_angle_r	knee_angle_r_beta	ankle_angle_r	subtalar_angle_r	mtp_angle_r	hip_flexion_l	hip_adduction_l	hip_rotation_l	knee_angle_l	knee_angle_l_beta	ankle_angle_l	subtalar_angle_l	mtp_angle_l	lumbar_extension	lumbar_bending	lumbar_rotation	arm_flex_r	arm_add_r	arm_rot_r	elbow_flex_r	pro_sup_r	arm_flex_l	arm_add_l	arm_rot_l	elbow_flex_l	pro_sup_l
     44.73333330	     -4.03230092	     -5.59261633	     -2.81536049	      1.03059700	      0.92254068	      0.78290389	     24.76512636	      6.16569223	      5.49809529	     16.75466700	      0.29242410	      3.93618951	      0.55595109	     -7.49999987	     -6.75599761	     -7.34487150	     -3.07314181	     30.53526138	      0.53294085	     12.08861807	     -7.67749517	     -7.49999987	     -9.21636199	      7.61801419	     -0.01212053	      2.77290368	    -15.52596762	     10.28345455	     16.81925179	     83.56559599	     12.66309080	     -9.31190976	     12.83366631	     21.42068453	     82.22822564
     44.75000000	     -3.56958048	     -6.25377635	     -2.87034796	      1.03396038	      0.92377080	      0.78799932	     23.33117529	      7.18014234	      5.75405624	     17.50279791	      0.30548145	      5.21588075	     -0.16893372	     -7.49999987	     -6.74372412	     -8.28496234	     -3.19408931	     33.14238213	      0.57844369	      9.60591048	     -8.23562086	     -7.49999987	     -9.26231615	      8.39749182	      0.18984470	      2.71947729	    -15.73575489	     10.22214910	     16.80199534	     83.63191259	     11.92172900	     -8.92386999	     12.65473811	     21.00124079	     82.23300318
     44.76666670	     -2.78160543	     -6.80992833	     -2.77136418	      1.03291430	      0.92885031	      0.79295341	     21.34319179	      8.08458907	      6.13816002	     17.83011353	      0.31119419	      6.32267297	     -1.11116519	     -7.49999987	     -6.51090804	     -8.99790458	     -2.77302944	     36.35914501	      0.63458679	      5.73611782	    -10.18406733	     -7.49999987	     -9.77061013	      9.08247665	      0.31328540	      2.82675854	    -15.83427957	     10.12706677	     17.02402513	     82.68889704	     11.42085128	     -8.42504655	     11.15362444	     20.16365727	     81.02670401
     44.78333330	     -2.01866459	     -7.15606793	     -2.68657378	      1.02884920	      0.93386562	      0.79881670	     19.32643703	      8.81445224	      6.46794023	     17.94301266	      0.31316465	      7.40397279	     -1.61900495	     -7.49999987	     -5.67125130	     -9.55621412	     -2.45667874	     40.17325546	      0.70115558	      1.78103216	    -11.55359443	     -7.49999987	    -10.37565325	      9.45288555	      0.46119448	      3.14135150	    -15.81813662	     10.36333800	     17.12613435	     81.96222033	     11.00794879	     -8.25619512	     10.46144168	     19.69582576	     80.29532270
     44.80000000	     -1.26184859	     -7.27649131	     -2.55946211	      1.02438214	      0.93625604	      0.80487427	     17.32540109	      9.34778498	      6.77794053	     17.87976060	      0.31206069	      8.13094080	     -2.20566355	     -7.49999987	     -4.33556771	     -9.84289081	     -1.97216632	     44.47747534	      0.77627839	     -2.36156806	    -12.99405267	     -7.49999987	    -11.12374979	      9.53604014	      0.77773851	      3.45552775	    -15.78140326	     10.39903995	     17.54222830	     82.05530768	     10.77149521	     -8.27161148	     10.33161891	     19.48207225	     80.35952571
     44.81666670	     -0.65966289	     -7.14865605	     -2.50404487	      1.02043911	      0.93715622	      0.80982925	     15.61343597	      9.63987608	      7.10121394	     17.82408629	      0.31108899	      8.77498931	     -2.56889783	     -7.49999987	     -2.60733871	     -9.78482238	     -1.52344438	     48.81826663	      0.85203949	     -5.52839250	    -13.74020426	     -7.49999987	    -11.88981534	      9.29343907	      1.28441263	      3.90405974	    -15.66310285	     10.46231401	     17.87442681	     82.06785521	     10.64615890	     -8.32611444	     10.25513457	     19.31007674	     80.35932156
     44.83333330	     -0.18957621	     -6.69418462	     -2.28793726	      1.01729465	      0.93833626	      0.81254546	     14.04836663	      9.49856810	      7.44712725	     17.54530100	      0.30622327	      9.01613969	     -2.83457377	     -7.49999987	     -0.65285297	     -9.16949302	     -0.83069301	     52.67766018	      0.91939861	     -7.81476162	    -14.97311844	     -7.49999987	    -12.54588374	      8.71283137	      1.76019252	      4.33995056	    -15.39319201	     10.59586579	     18.18326059	     82.12684731	     10.65244415	     -8.42003358	     10.18984509	     18.92332057	     80.42186224
     44.85000000	      0.17317110	     -5.90813295	     -2.12921118	      1.01560405	      0.93827358	      0.81374666	     12.67877051	      8.93955493	      7.84166603	     17.31457459	      0.30219634	      9.32280357	     -2.77681412	     -7.49999987	      1.44897235	     -8.21062225	     -0.52819606	     55.81433337	      0.97414389	     -8.42316802	    -15.75978412	     -7.49999987	    -13.22081069	      7.73979188	      2.25930368	      4.82128145	    -15.08656862	     10.90544073	     18.48503380	     80.93685019	     10.76689698	     -8.50705267	     10.24331278	     18.33800478	     79.39948464
     44.86666670	      0.44018174	     -5.05184712	     -1.81600300	      1.01520936	      0.93651186	      0.81419477	     11.43495975	      8.16946350	      7.98811963	     17.13911219	      0.29913394	      9.65091048	     -2.44569050	     -7.49999987	      3.83815165	     -7.30851650	     -0.39599142	     58.38668021	      1.01903981	     -7.39061550	    -16.38345856	     -7.49999987	    -13.82241194	      6.70545568	      2.75539595	      5.19167635	    -14.87233465	     11.52185009	     18.91112690	     80.71570159	     10.94529547	     -8.59730918	     10.59452314	     18.15377892	     79.58154051
     44.88333330	      0.80669179	     -4.02169259	     -1.50180623	      1.01507338	      0.93506785	      0.81485866	     10.12575663	      7.13663454	      7.98244261	     17.12574019	      0.29890055	     10.18950118	     -1.94560545	     -7.49999987	      6.18475393	     -6.31567486	     -0.39696982	     60.21391256	      1.05093103	     -5.66208892	    -17.04483638	     -7.49999987	    -14.61407729	      5.43719084	      3.11877983	      5.58572355	    -14.64921921	     11.61931637	     19.62237002	     80.62894251	     11.01509053	     -8.79884731	     10.62116529	     18.42618619	     79.55507037
     44.90000000	      1.23553056	     -2.95974228	     -1.32186711	      1.01456289	      0.93671774	      0.81588848	      8.75287191	      6.01533961	      7.80842546	     17.16496094	      0.29958508	     10.94045038	     -1.11537341	     -7.49999987	      8.38689541	     -5.35719797	     -0.57782489	     61.30155589	      1.06991399	     -3.78310241	    -17.44012446	     -7.49999987	    -15.45826082	      4.16279827	      3.57754171	      6.06329783	    -14.52347201	     11.87180175	     20.37301350	     79.75160183	     11.20233679	     -8.95170932	     10.73457237	     18.53605193	     78.86691548
     44.91666670	      1.60472239	     -1.93561913	     -1.26772089	      1.01371882	      0.94157210	      0.81730338	      7.44161843	      4.92640939	      7.63793141	     17.12843477	      0.29894758	     11.64401936	     -0.46275415	     -7.49999987	     10.51772080	     -4.47920036	     -0.84392483	     61.72476216	      1.07730033	     -2.37582835	    -17.60981285	     -7.49999987	    -16.15135120	      2.88721756	      3.99724630	      6.62791495	    -14.43313095	     12.24687009	     20.97766731	     79.86584809	     11.31518922	     -9.15709346	     10.86368942	     18.56646917	     79.18010918
     44.93333330	      1.99302489	     -0.97456272	     -1.31442057	      1.01228984	      0.94646920	      0.81855514	      6.11745409	      3.87071947	      7.35648917	     16.94447980	      0.29573696	     12.36731351	      0.52541544	     -7.49999987	     12.46446476	     -3.69361386	     -1.19268928	     61.54336550	      1.07413436	     -1.28243803	    -17.39275787	     -7.49999987	    -16.93249613	      1.68922846	      4.46526323	      7.17812256	    -14.41793394	     12.34906835	     21.64738506	     79.64292657	     11.31796478	     -9.31353870	     10.65679681	     18.71876729	     79.02915743
     44.95000000	      2.45323964	     -0.12607789	     -1.36504188	      1.00982352	      0.94844251	      0.81900897	      4.75097912	      2.95015543	      7.25228613	     16.67007453	      0.29094769	     12.93850352	      1.08629502	     -7.49999987	     14.13236785	     -3.02011646	     -1.56002420	     60.69509692	      1.05932928	     -0.55695909	    -17.47690448	     -7.49999987	    -17.87626866	      0.63304398	      4.80922460	      7.72238496	    -14.47436843	     12.36463480	     22.70310496	     78.86156781	     11.17721158	     -9.47800937	     10.51650802	     19.03403418	     78.27042843
     44.96666670	      2.63359232	      0.49549666	     -1.48729904	      1.00689143	      0.94865793	      0.81900044	      3.70861821	      2.30797004	      7.41031164	     16.38147094	      0.28591060	     13.29156068	      1.36149583	     -7.49999987	     15.78743025	     -2.68627395	     -2.16544019	     59.10293264	      1.03154077	      0.48748182	    -17.09401880	     -7.49999987	    -18.40716852	     -0.16159526	      5.36070033	      8.24552148	    -14.61535090	     12.53066431	     23.38815334	     79.03360304	     11.14594658	     -9.51114317	     10.45010562	     18.81945144	     78.39612580
     44.98333330	      2.88124281	      1.05516025	     -1.54530425	      1.00469309	      0.95048286	      0.81897375	      2.54175327	      1.66779685	      7.36296865	     16.03685712	      0.27989596	     13.59016124	      1.91199834	     -7.49999987	     16.94568860	     -2.36004120	     -2.82610285	     56.64331523	      0.98861235	      1.38192872	    -16.69348592	     -7.49999987	    -18.98649654	     -0.88805247	      5.92436674	      8.69087856	    -14.88944436	     12.76510589	     24.50366699	     79.33494579	     11.14107002	     -9.44538937	     10.25056804	     18.51711623	     78.62650903
